# xmcd
# Track frame offsets:
# 150
# 15126
# 29035
# 42911
# 58101
# 72537
# 89805
# 104060
# 122237
# 135785
# 154235
#
# Disc length: 2289 seconds
# Revision: 0
# Processed by: cddbd v1.5.2PL0 Copyright (c) Steve Scherf et al.
# Submitted via: VisiTrax 2.11.3.279 - For more info visit www.synapsa.com
#
DISCID=9b08ef0b
DTITLE=Annette Heick - Grænseløs
DYEAR=2012
DGENRE=Pop
TTITLE0=Pitstop Öresund
TTITLE1=Konst
TTITLE2=Se Mig
TTITLE3=Edderkoppen
TTITLE4=Diamonds and Pearls
TTITLE5=Ta' Mig Med
TTITLE6=Ingen Grænser
TTITLE7=Landet Lagom
TTITLE8=Helt Forkert
TTITLE9=Nu
TTITLE10=40+
EXTD=
EXTT0=
EXTT1=
EXTT2=
EXTT3=
EXTT4=
EXTT5=
EXTT6=
EXTT7=
EXTT8=
EXTT9=
EXTT10=
PLAYORDER=
